<svg width="32" height="32" viewBox="0 0 32 32" xmlns="http://www.w3.org/2000/svg" fill="none">
  <g stroke="#252525" stroke-width="1.71428571">
    <g transform="translate(1, -4)">
      <g transform="translate(15, 20) rotate(-90) translate(-15, -20) translate(0, 5)">
        <path d="M15.0001429,30 C6.71574837,30 0,23.2842516 0,15.0001429 C0,6.71574837 6.71574837,0 15.0001429,0 C23.2842516,0 30,6.71574837 30,15.0001429 C30,23.2842516 23.2842516,30 15.0001429,30 Z M3.87989904,15.0001429 C3.87989904,21.1415782 8.85842183,26.120101 15.0001429,26.120101 M7.72779656,15.0001429 C7.72779656,19.0163341 10.9836659,22.2722034 15.0001429,22.2722034 L28.1221963,22.2722034 M15.0001429,26.120101 L25.0669079,26.120101 M26.120101,15.0001429 C26.120101,8.85842183 21.1415782,3.87989904 15.0001429,3.87989904 M22.2722034,15.0001429 C22.2722034,10.9836659 19.0163341,7.72779656 15.0001429,7.72779656 L1.87808943,7.72779656 M15.0001429,3.87989904 L4.93309205,3.87989904" />
      </g>
    </g>
  </g>
</svg>
